<svg width="38" height="36" viewBox="0 0 38 36" fill="none" xmlns="http://www.w3.org/2000/svg">
<rect x="0.761719" y="0.194824" width="36.5547" height="35.0199" rx="6" fill="#844AFE"/>
<path d="M7.24412 23.3213L13.3514 9.91733C13.6873 9.17999 14.7148 9.1274 15.1243 9.82658L18.3818 15.3887C18.5462 15.6694 18.5638 16.0126 18.4289 16.3087L13.8602 26.3358C13.6312 26.8384 13.0382 27.0602 12.5356 26.8312L7.7395 24.646C7.23692 24.417 7.01513 23.8239 7.24412 23.3213Z" fill="white"/>
<path d="M30.7877 23.0652L24.1255 9.92818C23.759 9.20552 22.7303 9.19592 22.3504 9.91161L19.3282 15.605C19.1757 15.8924 19.1725 16.236 19.3196 16.5262L24.3034 26.3536C24.5532 26.8462 25.155 27.043 25.6476 26.7932L30.3481 24.4094C30.8407 24.1596 31.0375 23.5578 30.7877 23.0652Z" fill="white"/>
</svg>
